# xmcd
#
# Track frame offsets:
# 150
# 13787
# 26422
# 34185
# 44797
# 55657
# 68372
# 84252
# 94445
# 105127
# 114137
# 124800
# 134400
# 146655
# 156165
# 168955
# 180740
# 189995
# 198437
# 207735
#
# Disc length: 2895 seconds
#
#
# Revision: 0
# Processed by: cddbd v1.5.1PL2 Copyright (c) Steve Scherf et al.
# Submitted via: FreeRIP 2.944 
#
DISCID=0f0b4d14
DTITLE=Mangabinha - Raíze Sertanejas (mangabinha)
DYEAR=1900
DGENRE=Vocal
TTITLE0=Bobagem da zefina
TTITLE1=Furando o couro
TTITLE2=Mancada do mangaba
TTITLE3=Urubu malandro
TTITLE4=Chupando gelo
TTITLE5=Forró do bodão
TTITLE6=Nova República
TTITLE7=Quebra topete
TTITLE8=Forró no Barcelona
TTITLE9=Bufado do bode
TTITLE10=Sossego
TTITLE11=Beija-flor
TTITLE12=Festa sertaneja
TTITLE13=Pisão no calo
TTITLE14=Pé de mangaba
TTITLE15=Força maior
TTITLE16=Puxando o cordão
TTITLE17=Pica-pau no oco
TTITLE18=Corintiano roxo
TTITLE19=A saideira
EXTD=
EXTT0=
EXTT1=
EXTT2=
EXTT3=
EXTT4=
EXTT5=
EXTT6=
EXTT7=
EXTT8=
EXTT9=
EXTT10=
EXTT11=
EXTT12=
EXTT13=
EXTT14=
EXTT15=
EXTT16=
EXTT17=
EXTT18=
EXTT19=
PLAYORDER=
